<svg width="359" height="166" viewBox="0 0 359 166" fill="none" xmlns="http://www.w3.org/2000/svg">
<path d="M54.349 98.6619C51.245 98.6619 48.5642 98.1109 46.3066 97.0095C44.0625 95.8966 42.336 94.3244 41.1267 92.2936C39.9173 90.251 39.3125 87.8474 39.3125 85.082C39.3125 82.3627 39.9173 79.976 41.1267 77.9222C42.3495 75.8566 44.0558 74.2502 46.2463 73.1031C48.4365 71.9441 51.0098 71.3646 53.9659 71.3646C55.874 71.3646 57.6747 71.6285 59.3675 72.1564C61.0742 72.6726 62.579 73.476 63.8827 74.5659C65.1995 75.6561 66.234 77.0444 66.9867 78.731C67.7391 80.4062 68.1152 82.4027 68.1152 84.7206V86.6312H42.739V82.4315H61.121C61.1079 81.2383 60.8053 80.1769 60.2143 79.2475C59.623 78.3066 58.7964 77.5663 57.735 77.0271C56.6868 76.4879 55.464 76.2183 54.0666 76.2183C52.5753 76.2183 51.2649 76.5279 50.1364 77.1477C49.0076 77.7556 48.1275 78.5589 47.4957 79.5571C46.8778 80.544 46.562 81.6281 46.5486 82.8101V86.4761C46.5486 88.0137 46.8778 89.3332 47.5362 90.4346C48.1946 91.5248 49.1151 92.3624 50.2975 92.9476C51.4798 93.5214 52.864 93.8082 54.4497 93.8082C55.5111 93.8082 56.4718 93.6819 57.332 93.4296C58.1919 93.1657 58.9376 92.7813 59.569 92.2764C60.2008 91.7714 60.6776 91.1462 61.0004 90.4004L67.8129 91.0544C67.383 92.592 66.5632 93.9342 65.3538 95.0817C64.158 96.2177 62.6262 97.1013 60.7585 97.7323C58.8908 98.352 56.7542 98.6619 54.349 98.6619ZM74.5364 98.1454V71.7087H81.611V76.115H81.9335C82.4979 74.5889 83.4652 73.4126 84.836 72.5866C86.2202 71.749 87.7988 71.3301 89.5725 71.3301C89.9758 71.3301 90.426 71.3473 90.923 71.3819C91.4338 71.4046 91.8571 71.4449 92.193 71.5021V77.2337C91.8837 77.1419 91.3934 77.0616 90.7215 76.9926C90.0631 76.9123 89.4249 76.8723 88.8066 76.8723C87.4763 76.8723 86.2805 77.1189 85.2191 77.6123C84.1708 78.0943 83.3443 78.7655 82.7398 79.6261C82.135 80.4867 81.8327 81.4791 81.8327 82.6035V98.1454H74.5364ZM125.885 71.7087L114.86 98.1454H106.797L95.772 71.7087H103.552L110.667 91.347H110.99L118.125 71.7087H125.885ZM143.835 98.6619C140.731 98.6619 138.05 98.1109 135.793 97.0095C133.549 95.8966 131.822 94.3244 130.613 92.2936C129.403 90.251 128.799 87.8474 128.799 85.082C128.799 82.3627 129.403 79.976 130.613 77.9222C131.836 75.8566 133.542 74.2502 135.732 73.1031C137.923 71.9441 140.496 71.3646 143.452 71.3646C145.36 71.3646 147.161 71.6285 148.854 72.1564C150.56 72.6726 152.065 73.476 153.369 74.5659C154.686 75.6561 155.72 77.0444 156.473 78.731C157.225 80.4062 157.602 82.4027 157.602 84.7206V86.6312H132.225V82.4315H150.607C150.594 81.2383 150.292 80.1769 149.7 79.2475C149.109 78.3066 148.283 77.5663 147.221 77.0271C146.173 76.4879 144.95 76.2183 143.553 76.2183C142.061 76.2183 140.751 76.5279 139.622 77.1477C138.494 77.7556 137.614 78.5589 136.982 79.5571C136.364 80.544 136.048 81.6281 136.035 82.8101V86.4761C136.035 88.0137 136.364 89.3332 137.022 90.4346C137.681 91.5248 138.601 92.3624 139.784 92.9476C140.966 93.5214 142.35 93.8082 143.936 93.8082C144.997 93.8082 145.958 93.6819 146.818 93.4296C147.678 93.1657 148.424 92.7813 149.055 92.2764C149.687 91.7714 150.164 91.1462 150.487 90.4004L157.299 91.0544C156.869 92.592 156.05 93.9342 154.84 95.0817C153.644 96.2177 152.112 97.1013 150.245 97.7323C148.377 98.352 146.24 98.6619 143.835 98.6619Z" fill="white"/>
<path d="M25.7175 77.8822L18.3697 87.7771C16.5036 85.1205 12.9322 81.101 11.4627 77.5247C11.5003 76.3591 14.4018 73.233 14.8427 72.3984H14.4018L0 72.5178L18.3697 98.2681L36.7393 72.5178H21.7497L18.3697 77.5247L25.7175 77.8822Z" fill="#FF9900"/>
<path d="M21.6029 102.558V111.172H20.2656V102.558H21.6029ZM37.7189 102.558V111.172H36.3748L31.2962 104.528V111.172H29.959V102.558H31.2962L36.3957 109.22V102.558H37.7189ZM53.7728 102.558V111.172H52.4286L47.3502 104.528V111.172H46.0128V102.558H47.3502L52.4496 109.22V102.558H53.7728ZM69.8334 106.593V107.137C69.8334 107.784 69.7387 108.364 69.5493 108.876C69.3602 109.389 69.0874 109.825 68.7319 110.184C68.3761 110.543 67.949 110.817 67.4499 111.006C66.9557 111.196 66.4016 111.29 65.7872 111.29C65.1912 111.29 64.6439 111.196 64.1451 111.006C63.6509 110.817 63.2214 110.543 62.8563 110.184C62.4963 109.825 62.2167 109.389 62.0181 108.876C61.8194 108.364 61.7201 107.784 61.7201 107.137V106.593C61.7201 105.946 61.8173 105.368 62.011 104.859C62.2096 104.346 62.4892 103.911 62.8496 103.552C63.2097 103.189 63.6371 102.913 64.1313 102.723C64.63 102.534 65.1774 102.439 65.7734 102.439C66.3878 102.439 66.9419 102.534 67.4361 102.723C67.9352 102.913 68.3623 103.189 68.7181 103.552C69.0782 103.911 69.3531 104.346 69.5425 104.859C69.7366 105.368 69.8334 105.946 69.8334 106.593ZM68.5102 107.137V106.581C68.5102 106.068 68.4478 105.615 68.3229 105.22C68.203 104.826 68.0253 104.494 67.7897 104.226C67.5538 103.958 67.2654 103.755 66.9235 103.617C66.5864 103.479 66.203 103.41 65.7734 103.41C65.3576 103.41 64.9812 103.479 64.6439 103.617C64.3115 103.755 64.0252 103.958 63.7847 104.226C63.5491 104.494 63.3668 104.826 63.2373 105.22C63.1082 105.615 63.0436 106.068 63.0436 106.581V107.137C63.0436 107.654 63.1082 108.111 63.2373 108.51C63.3668 108.904 63.5516 109.237 63.7918 109.51C64.0366 109.778 64.3253 109.981 64.6577 110.119C64.9951 110.257 65.3715 110.326 65.7872 110.326C66.2214 110.326 66.607 110.257 66.9444 110.119C67.2814 109.981 67.5655 109.778 67.7965 109.51C68.032 109.237 68.2098 108.904 68.33 108.51C68.4503 108.111 68.5102 107.654 68.5102 107.137ZM80.8641 109.865L83.8365 102.558H85.2846L81.5499 111.172H80.5176L80.8641 109.865ZM78.0858 102.558L81.0305 109.865L81.3977 111.172H80.3654L76.6377 102.558H78.0858ZM95.7885 103.321L92.449 111.172H91.0839L94.9294 102.558H95.8091L95.7885 103.321ZM98.5875 111.172L95.2412 103.321L95.2202 102.558H96.1004L99.9596 111.172H98.5875ZM98.4144 107.983V108.918H92.747V107.983H98.4144ZM110.075 102.558V111.172H108.759V102.558H110.075ZM113.318 102.558V103.492H105.523V102.558H113.318ZM122.173 102.558V111.172H120.836V102.558H122.173ZM138.296 106.593V107.137C138.296 107.784 138.202 108.364 138.012 108.876C137.823 109.389 137.55 109.825 137.195 110.184C136.839 110.543 136.412 110.817 135.913 111.006C135.418 111.196 134.864 111.29 134.25 111.29C133.654 111.29 133.107 111.196 132.608 111.006C132.114 110.817 131.684 110.543 131.319 110.184C130.959 109.825 130.679 109.389 130.481 108.876C130.282 108.364 130.183 107.784 130.183 107.137V106.593C130.183 105.946 130.28 105.368 130.474 104.859C130.673 104.346 130.952 103.911 131.312 103.552C131.673 103.189 132.1 102.913 132.594 102.723C133.093 102.534 133.64 102.439 134.236 102.439C134.85 102.439 135.404 102.534 135.899 102.723C136.398 102.913 136.825 103.189 137.181 103.552C137.541 103.911 137.816 104.346 138.005 104.859C138.199 105.368 138.296 105.946 138.296 106.593ZM136.973 107.137V106.581C136.973 106.068 136.91 105.615 136.786 105.22C136.666 104.826 136.488 104.494 136.252 104.226C136.017 103.958 135.728 103.755 135.386 103.617C135.049 103.479 134.666 103.41 134.236 103.41C133.82 103.41 133.444 103.479 133.107 103.617C132.774 103.755 132.488 103.958 132.248 104.226C132.012 104.494 131.829 104.826 131.7 105.22C131.571 105.615 131.506 106.068 131.506 106.581V107.137C131.506 107.654 131.571 108.111 131.7 108.51C131.829 108.904 132.014 109.237 132.254 109.51C132.499 109.778 132.788 109.981 133.121 110.119C133.458 110.257 133.834 110.326 134.25 110.326C134.684 110.326 135.07 110.257 135.407 110.119C135.744 109.981 136.028 109.778 136.259 109.51C136.495 109.237 136.673 108.904 136.793 108.51C136.913 108.111 136.973 107.654 136.973 107.137ZM153.983 102.558V111.172H152.639L147.56 104.528V111.172H146.223V102.558H147.56L152.66 109.22V102.558H153.983Z" fill="white"/>
</svg>
